<?xml version="1.0" standalone="no"?>
<!DOCTYPE svg PUBLIC "-//W3C//DTD SVG 20010904//EN"
 "http://www.w3.org/TR/2001/REC-SVG-20010904/DTD/svg10.dtd">
<svg version="1.0" xmlns="http://www.w3.org/2000/svg"
 width="260.000000pt" height="260.000000pt" viewBox="0 0 260.000000 260.000000"
 preserveAspectRatio="xMidYMid meet">
<metadata>
Created by potrace 1.14, written by Peter Selinger 2001-2017
</metadata>
<g transform="translate(0.000000,260.000000) scale(0.100000,-0.100000)"
fill="#000000" stroke="none">
<path d="M1247 2314 c-1 -1 -29 -4 -62 -8 -33 -3 -71 -8 -85 -11 -36 -7 -73
-16 -85 -19 -5 -2 -23 -6 -40 -11 -43 -11 -225 -101 -259 -127 -47 -38 -216
-202 -216 -211 0 -8 -11 -23 -43 -58 -9 -10 -14 -19 -10 -19 5 0 3 -4 -2 -8
-6 -4 -17 -20 -25 -37 -8 -16 -19 -33 -23 -36 -4 -3 -9 -16 -10 -27 -1 -12 -4
-22 -8 -22 -4 0 -13 -17 -20 -37 -6 -21 -15 -42 -19 -48 -4 -5 -11 -26 -15
-45 -4 -19 -10 -39 -13 -45 -7 -11 -9 -19 -20 -96 -16 -108 1 -348 30 -429 3
-8 14 -37 23 -65 10 -27 32 -78 51 -112 18 -35 31 -63 27 -63 -3 0 4 -8 15
-19 12 -10 22 -22 22 -26 0 -23 155 -187 230 -243 19 -15 37 -29 40 -32 12
-13 109 -68 165 -92 64 -28 198 -68 249 -74 49 -5 208 -4 246 1 19 3 51 8 70
10 38 5 73 12 78 15 3 3 13 6 50 15 17 4 32 11 32 15 0 3 7 7 15 8 8 1 22 3
30 4 8 1 15 5 15 9 0 5 18 14 50 23 3 0 21 11 41 24 20 12 40 22 45 22 5 0 16
9 24 20 8 11 20 20 27 20 7 0 23 10 36 23 100 93 163 160 195 207 20 30 40 56
45 58 4 2 7 8 7 12 0 5 13 31 28 57 16 26 29 50 30 53 0 3 7 21 16 40 13 33
48 143 51 165 1 6 3 12 4 15 13 27 21 295 10 358 -18 103 -38 171 -70 234 -5
10 -9 25 -9 33 0 8 -3 15 -7 15 -5 0 -19 23 -32 50 -14 28 -29 50 -35 50 -5 0
-7 3 -3 6 3 3 -3 15 -13 27 -73 87 -102 120 -141 155 -85 78 -114 102 -141
113 -16 6 -28 15 -28 20 0 5 -9 9 -20 9 -11 0 -20 4 -20 8 0 9 -79 46 -92 43
-5 0 -8 4 -8 11 0 6 -3 9 -6 5 -4 -3 -19 0 -34 8 -15 8 -30 11 -34 8 -3 -4 -6
-1 -6 5 0 6 -7 9 -15 6 -8 -3 -20 -2 -27 2 -7 5 -17 9 -23 10 -5 1 -38 7 -72
13 -34 6 -65 11 -70 10 -4 -1 -10 -1 -13 0 -6 3 -121 7 -123 5z m158 -49 c71
-8 84 -11 205 -46 41 -11 82 -27 90 -34 8 -7 24 -15 35 -17 11 -1 23 -7 27
-13 4 -5 12 -10 17 -10 16 0 143 -96 182 -137 20 -21 42 -38 50 -38 7 0 9 -3
6 -6 -4 -4 1 -14 11 -23 22 -19 102 -139 102 -152 0 -5 5 -9 10 -9 6 0 10 -6
10 -12 0 -7 11 -35 25 -62 13 -27 22 -52 19 -57 -3 -5 0 -9 5 -9 6 0 10 -3 9
-7 -1 -5 4 -21 10 -36 7 -16 13 -44 15 -63 1 -19 5 -34 8 -34 3 0 5 -13 5 -30
0 -16 -5 -30 -10 -30 -6 0 -35 16 -64 35 -28 20 -52 33 -52 30 0 -4 -7 1 -16
9 -8 9 -22 16 -30 16 -8 0 -14 3 -14 8 0 6 -89 52 -110 57 -34 9 -141 81 -175
119 -15 17 -105 89 -145 116 -19 13 -37 27 -40 30 -3 3 -21 14 -40 23 -19 9
-60 40 -90 68 -116 109 -142 119 -212 85 -26 -13 -45 -26 -41 -30 3 -3 1 -6
-5 -6 -6 0 -51 -33 -99 -73 -160 -133 -300 -237 -317 -237 -2 0 -33 -18 -67
-40 -65 -41 -165 -91 -206 -104 -13 -4 -23 -12 -23 -17 0 -5 -7 -9 -15 -9 -7
0 -18 -6 -22 -13 -4 -8 -21 -22 -38 -33 -16 -10 -32 -21 -35 -25 -3 -3 -15 -9
-27 -13 -26 -8 -30 5 -13 49 9 23 17 55 24 95 2 8 6 22 9 30 19 46 30 76 31
80 4 19 82 157 95 167 9 7 12 13 6 13 -6 0 -6 3 1 8 6 4 25 27 42 51 18 24 32
42 32 39 0 -3 24 17 53 44 82 77 83 78 95 78 7 0 12 4 12 8 0 13 188 112 213
112 9 0 18 4 21 9 3 5 23 12 43 16 21 4 40 7 43 8 3 0 28 6 55 12 28 7 79 13
115 14 36 2 66 4 67 5 3 2 37 0 108 -9z"/>
</g>
</svg>
